<?xml version="1.0" encoding="iso-8859-1"?>
<!-- Generator: Adobe Illustrator 19.1.0, SVG Export Plug-In . SVG Version: 6.00 Build 0)  -->
<svg version="1.1" id="Layer_1" xmlns="http://www.w3.org/2000/svg" xmlns:xlink="http://www.w3.org/1999/xlink" x="0px" y="0px"
	 viewBox="0 0 460.169 243.696" style="enable-background:new 0 0 460.169 243.696;" xml:space="preserve">
<g>
	<g>
		<path style="fill:#003159;" d="M237.534,71.987c-32.853,0-61.442,18.479-75.84,45.611c-14.402-27.132-42.977-45.611-75.853-45.611
			c-19.305,0-37.139,6.385-51.528,17.17v-72.33C34.143,7.482,26.521,0,17.142,0C7.763,0,0.215,7.482,0,16.828v142.429h0.019
			c0.756,46.766,38.865,84.439,85.822,84.439c32.875,0,61.45-18.496,75.853-45.602c14.398,27.105,42.987,45.602,75.84,45.602
			c47.399,0,85.851-38.436,85.851-85.87C323.384,110.414,284.933,71.987,237.534,71.987 M85.841,209.323
			c-28.444,0-51.528-23.041-51.528-51.485c0-28.438,23.084-51.479,51.528-51.479c28.441,0,51.477,23.042,51.477,51.468
			C137.318,186.276,114.282,209.323,85.841,209.323 M237.534,209.323c-28.45,0-51.518-23.047-51.518-51.497
			c0-28.426,23.068-51.468,51.518-51.468c28.438,0,51.494,23.042,51.494,51.468C289.028,186.276,265.972,209.323,237.534,209.323"/>
		<path style="fill:#003159;" d="M456.6,214.954l-46.666-57.239l46.723-57.351c5.906-7.566,4.213-18.129-3.941-23.742
			c-8.165-5.661-19.62-4.209-25.938,3.131v-0.012l-40.196,49.265l-40.161-49.265v0.012c-6.253-7.341-17.779-8.792-25.92-3.131
			c-8.14,5.618-9.841,16.176-3.904,23.742h-0.017l46.639,57.351l-46.639,57.239h0.017c-5.936,7.588-4.235,18.12,3.904,23.756
			c8.141,5.637,19.667,4.201,25.92-3.15l40.161-49.196l40.14,49.196c6.324,7.352,17.776,8.787,25.94,3.15
			C460.817,233.074,462.518,222.542,456.6,214.954"/>
	</g>
</g>
</svg>
