<?xml version="1.0" encoding="utf-8"?>
<!-- Generator: Adobe Illustrator 18.1.1, SVG Export Plug-In . SVG Version: 6.00 Build 0)  -->
<svg version="1.1" id="Layer_1" xmlns="http://www.w3.org/2000/svg" xmlns:xlink="http://www.w3.org/1999/xlink" x="0px" y="0px"
	 viewBox="0 0 109.512 152.856" enable-background="new 0 0 109.512 152.856" xml:space="preserve">
<g>
	<g>
		<path fill="#F94877" d="M96.084,0c0,0-70.276,0-81.525,0C3.308,0,0,8.461,0,13.789c0,5.332,0,129.532,0,129.532
			c0,6.002,3.226,8.229,5.037,8.962c1.813,0.735,6.815,1.354,9.812-2.105c0,0,38.489-44.661,39.15-45.322c1-1,1-1,2-1
			c2,0,16.835,0,24.902,0c10.464,0,12.146-7.462,13.238-11.857c0.91-3.681,11.119-55.943,14.528-72.524
			C111.271,6.821,108.056,0,96.084,0z M94.141,91.999c0.91-3.681,11.119-55.943,14.528-72.524 M91.269,22.065L87.847,39.9
			c-0.409,1.928-2.836,3.956-5.087,3.956c-2.25,0-31.76,0-31.76,0c-3.573,0-6.131,2.436-6.131,6.006v3.889
			c0,3.573,2.573,6.105,6.148,6.105c0,0,24.425,0,26.945,0c2.523,0,5,2.767,4.454,5.461C81.869,68.016,79.308,81.382,79,82.856
			c-0.309,1.477-2,4-5,4c-2.528,0-21.994,0-21.994,0c-4.006,0-5.217,0.523-7.896,3.854c-2.682,3.333-26.781,32.274-26.781,32.274
			c-0.244,0.28-0.482,0.199-0.482-0.106V21.801c0-2.28,1.982-4.955,4.955-4.955c0,0,62.871,0,65.424,0
			C89.633,16.846,91.883,19.108,91.269,22.065z"/>
	</g>
</g>
</svg>
